<svg xmlns="http://www.w3.org/2000/svg" viewBox="0 0 512 512" role="img" aria-label="INTEPOINT">
  <rect width="512" height="512" rx="96" fill="#fff"/>
  <!-- 左框 · 深蓝 -->
  <path fill="#1a365d" d="M96 128c0-35 28-64 64-64h32v72H160c-18 0-32 14-32 32v168c0 18 14 32 32 32h32v72h-32c-53 0-96-43-96-96V128z"/>
  <!-- 右框 · 灰 -->
  <path fill="#a0aec0" d="M416 384c0 35-28 64-64 64h-32v-72h32c18 0 32-14 32-32V176c0-18-14-32-32-32h-32V72h32c53 0 96 43 96 96v216z"/>
  <!-- i 字 -->
  <circle cx="256" cy="168" r="36" fill="#1a365d"/>
  <rect x="232" y="220" width="48" height="168" rx="24" fill="#1a365d"/>
</svg>
